<svg width="24" height="24" viewBox="0 0 24 24" fill="none" xmlns="http://www.w3.org/2000/svg">
<path d="M8.5948 3.71731L7.98068 2.9281L8.5948 3.71731ZM11.0903 2.11964L10.8313 1.15374L11.0903 2.11964ZM15.4052 3.71731L14.7911 4.50653L14.7911 4.50653L15.4052 3.71731ZM12.9097 2.11964L13.1687 1.15374L12.9097 2.11964ZM4.84278 20.6477L4.40423 21.5464L4.84278 20.6477ZM3.36785 19.2351L2.48502 19.7048L3.36785 19.2351ZM20.6321 19.2351L21.515 19.7048L20.6321 19.2351ZM19.1572 20.6477L19.5958 21.5464L19.1572 20.6477ZM20.8808 8.75796L19.9191 9.03213V9.03213L20.8808 8.75796ZM19.0052 6.51863L19.6193 5.72941V5.72941L19.0052 6.51863ZM20.368 7.72618L19.5675 8.3254L20.368 7.72618ZM3.11918 8.75796L4.08086 9.03213V9.03213L3.11918 8.75796ZM4.9948 6.51863L4.38068 5.72941V5.72941L4.9948 6.51863ZM3.63196 7.72618L4.43254 8.3254L3.63196 7.72618ZM7 16C6.44772 16 6 16.4477 6 17C6 17.5523 6.44772 18 7 18V17V16ZM17 18C17.5523 18 18 17.5523 18 17C18 16.4477 17.5523 16 17 16V17V18ZM21 10.5324H20V15.8283H21H22V10.5324H21ZM15.6 21V20H8.4V21V22H15.6V21ZM3 15.8283H4V10.5324H3H2V15.8283H3ZM4.9948 6.51863L5.60892 7.30784L9.20892 4.50652L8.5948 3.71731L7.98068 2.9281L4.38068 5.72941L4.9948 6.51863ZM15.4052 3.71731L14.7911 4.50653L18.3911 7.30784L19.0052 6.51863L19.6193 5.72941L16.0193 2.9281L15.4052 3.71731ZM8.5948 3.71731L9.20892 4.50652C10.4957 3.50525 10.9175 3.20126 11.3492 3.08553L11.0903 2.11964L10.8313 1.15374C9.91357 1.39977 9.12158 2.04032 7.98068 2.9281L8.5948 3.71731ZM15.4052 3.71731L16.0193 2.9281C14.8784 2.04032 14.0864 1.39977 13.1687 1.15374L12.9097 2.11964L12.6508 3.08553C13.0825 3.20126 13.5043 3.50525 14.7911 4.50653L15.4052 3.71731ZM11.0903 2.11964L11.3492 3.08553C11.7746 2.97149 12.2254 2.97149 12.6508 3.08553L12.9097 2.11964L13.1687 1.15374C12.404 0.948752 11.596 0.948752 10.8313 1.15374L11.0903 2.11964ZM8.4 21V20C7.4391 20 6.77604 19.9993 6.26132 19.959C5.75706 19.9196 5.48173 19.8468 5.28133 19.749L4.84278 20.6477L4.40423 21.5464C4.92579 21.8009 5.48398 21.9043 6.1053 21.9529C6.71615 22.0007 7.47072 22 8.4 22V21ZM3 15.8283H2C2 16.7162 1.99915 17.445 2.0496 18.0363C2.10116 18.6407 2.21161 19.1909 2.48502 19.7048L3.36785 19.2351L4.25069 18.7655C4.15625 18.5879 4.08277 18.3399 4.04236 17.8663C4.00085 17.3797 4 16.7507 4 15.8283H3ZM4.84278 20.6477L5.28133 19.749C4.83071 19.5291 4.47245 19.1823 4.25069 18.7655L3.36785 19.2351L2.48502 19.7048C2.91041 20.5044 3.58476 21.1465 4.40423 21.5464L4.84278 20.6477ZM21 15.8283H20C20 16.7507 19.9992 17.3797 19.9576 17.8663C19.9172 18.3399 19.8438 18.5879 19.7493 18.7655L20.6321 19.2351L21.515 19.7048C21.7884 19.1909 21.8988 18.6407 21.9504 18.0363C22.0008 17.445 22 16.7162 22 15.8283H21ZM15.6 21V22C16.5293 22 17.2838 22.0007 17.8947 21.9529C18.516 21.9043 19.0742 21.8009 19.5958 21.5464L19.1572 20.6477L18.7187 19.749C18.5183 19.8468 18.2429 19.9196 17.7387 19.959C17.224 19.9993 16.5609 20 15.6 20V21ZM20.6321 19.2351L19.7493 18.7655C19.5276 19.1823 19.1693 19.5291 18.7187 19.749L19.1572 20.6477L19.5958 21.5464C20.4152 21.1465 21.0896 20.5044 21.515 19.7048L20.6321 19.2351ZM21 10.5324H22C22 9.68532 22.009 9.06766 21.8425 8.48378L20.8808 8.75796L19.9191 9.03213C19.991 9.28433 20 9.57095 20 10.5324H21ZM19.0052 6.51863L18.3911 7.30784C19.1682 7.91256 19.4033 8.1061 19.5675 8.3254L20.368 7.72618L21.1686 7.12695C20.8055 6.64185 20.3078 6.26516 19.6193 5.72941L19.0052 6.51863ZM20.8808 8.75796L21.8425 8.48378C21.7031 7.99472 21.4743 7.53541 21.1686 7.12695L20.368 7.72618L19.5675 8.3254C19.7288 8.54101 19.8474 8.78047 19.9191 9.03213L20.8808 8.75796ZM3 10.5324H4C4 9.57095 4.00896 9.28433 4.08086 9.03213L3.11918 8.75796L2.1575 8.48378C1.99104 9.06766 2 9.68533 2 10.5324H3ZM4.9948 6.51863L4.38068 5.72941C3.69219 6.26516 3.19447 6.64185 2.83138 7.12695L3.63196 7.72618L4.43254 8.3254C4.59668 8.1061 4.83178 7.91256 5.60892 7.30784L4.9948 6.51863ZM3.11918 8.75796L4.08086 9.03213C4.15261 8.78047 4.27116 8.54101 4.43254 8.3254L3.63196 7.72618L2.83138 7.12695C2.52566 7.5354 2.29693 7.99472 2.1575 8.48378L3.11918 8.75796ZM7 17V18H17V17V16H7V17Z" fill="#93939D"/>
</svg>
