<svg width="20" height="20" viewBox="0 0 20 20" fill="none" xmlns="http://www.w3.org/2000/svg">
<path d="M11.6667 17.4996V14.5829C11.6667 14.4724 11.6678 14.3709 11.6691 14.281C11.6704 14.1888 11.6715 14.1124 11.6715 14.0417C11.6715 13.8978 11.6662 13.8174 11.6569 13.7618C11.6494 13.7167 11.64 13.6926 11.6276 13.6698C11.6126 13.6423 11.5784 13.5905 11.4941 13.5062C11.2673 13.2794 11.1906 12.9421 11.2972 12.6395C11.404 12.3369 11.6755 12.122 11.9946 12.0878C13.1057 11.9687 14.0443 11.7024 14.7046 11.1308C15.3291 10.59 15.8332 9.66117 15.8333 7.91705C15.8324 7.13782 15.5282 6.38948 14.9853 5.83046C14.7606 5.59898 14.6895 5.25841 14.8031 4.95644C14.9851 4.47247 15.0209 3.95029 14.9129 3.45253C14.5472 3.54063 13.9307 3.7696 13.0452 4.35992C12.8476 4.49163 12.6029 4.53291 12.373 4.47304C10.8169 4.06781 9.18304 4.06781 7.62695 4.47304C7.39707 4.53291 7.15244 4.49163 6.95475 4.35992C6.06865 3.76919 5.4519 3.54049 5.08626 3.45253C4.97835 3.95024 5.01491 4.47253 5.19694 4.95644C5.31052 5.25841 5.23937 5.59898 5.01464 5.83046C4.47177 6.38948 4.16756 7.13782 4.16666 7.91705C4.16675 9.66117 4.67084 10.59 5.29541 11.1308C5.95573 11.7024 6.89427 11.9687 8.00537 12.0878C8.32447 12.122 8.59597 12.3369 8.7028 12.6395C8.80942 12.9421 8.73269 13.2794 8.50586 13.5062C8.36716 13.645 8.32696 13.7467 8.3081 13.8448C8.28276 13.9765 8.28626 14.155 8.32682 14.4795C8.33109 14.5137 8.33331 14.5485 8.33333 14.5829V17.4996C8.33333 17.9598 7.96023 18.3329 7.5 18.3329C7.03976 18.3329 6.66666 17.9598 6.66666 17.4996V16.8794C6.12134 16.9505 5.62916 16.9208 5.18147 16.7956C4.44781 16.5903 3.93706 16.1589 3.55875 15.7239C3.22566 15.3408 2.88755 14.806 2.70507 14.5593C2.46362 14.2328 2.33746 14.1542 2.26481 14.1329C1.82337 14.003 1.57117 13.54 1.70084 13.0985C1.83071 12.657 2.29365 12.4039 2.73519 12.5337C3.3707 12.7207 3.77563 13.2045 4.04459 13.5681C4.37248 14.0114 4.52429 14.2945 4.81608 14.6301C5.06269 14.9137 5.31252 15.1018 5.63069 15.1908C5.86747 15.257 6.19726 15.282 6.66666 15.1908V14.6268C6.62819 14.3058 6.59887 13.9344 6.66666 13.5575C5.79634 13.3609 4.92797 13.0165 4.20491 12.3905C3.12119 11.4522 2.5 10.0052 2.5 7.91623C2.50113 6.8744 2.85116 5.86766 3.48551 5.05328C3.25542 4.11864 3.34177 3.12846 3.74023 2.24159L3.78255 2.1594C3.89218 1.9738 4.07032 1.83674 4.2806 1.77935L4.50032 2.58339C4.28106 1.77942 4.28147 1.77874 4.28222 1.77854H4.28385L4.29362 1.7761C4.29804 1.77496 4.30256 1.77321 4.30745 1.77203C4.31733 1.76965 4.32822 1.76717 4.34 1.7647C4.36371 1.75975 4.39166 1.75545 4.42301 1.75087C4.48571 1.74172 4.56322 1.73422 4.65576 1.73215C4.84158 1.72802 5.08489 1.74488 5.38574 1.81028C5.92683 1.92795 6.64829 2.2008 7.56591 2.77301C9.16829 2.41228 10.8309 2.4124 12.4333 2.77301C13.3512 2.20055 14.073 1.92797 14.6143 1.81028C14.9151 1.74488 15.1584 1.72802 15.3442 1.73215C15.4368 1.73422 15.5143 1.74172 15.577 1.75087C15.6083 1.75545 15.6363 1.75975 15.66 1.7647C15.6718 1.76717 15.6827 1.76965 15.6925 1.77203C15.6974 1.77321 15.702 1.77496 15.7064 1.7761L15.7161 1.77854H15.7178C15.7185 1.77873 15.7187 1.77914 15.5387 2.43935L15.7194 1.77935C15.9596 1.84491 16.1576 2.01452 16.2598 2.24159C16.6583 3.12852 16.7438 4.11858 16.5137 5.05328C17.1482 5.86773 17.4989 6.87342 17.5 7.91542C17.5 10.0043 16.8788 11.4522 15.7951 12.3905C15.0657 13.0219 14.1885 13.3667 13.3105 13.5624C13.353 13.8896 13.3333 14.2814 13.3333 14.5829V17.4996C13.3333 17.9598 12.9602 18.3329 12.5 18.3329C12.0398 18.3329 11.6667 17.9598 11.6667 17.4996Z" fill="black"/>
</svg>
