<svg width="20" height="20" viewBox="0 0 20 20" fill="none" xmlns="http://www.w3.org/2000/svg">
<path d="M10 18C14.3765 18 18 14.3686 18 10C18 5.62353 14.3686 2 9.99216 2C5.62353 2 2 5.62353 2 10C2 14.3686 5.63137 18 10 18ZM7.36471 13.2941C7.00392 13.2941 6.72157 13.0039 6.72157 12.6431C6.72157 12.4706 6.78431 12.3059 6.9098 12.1882L9.08235 10.0078L6.9098 7.83529C6.78431 7.7098 6.72157 7.55294 6.72157 7.38039C6.72157 7.01177 7.00392 6.73726 7.36471 6.73726C7.5451 6.73726 7.68628 6.8 7.81177 6.91765L10 9.09804L12.2039 6.9098C12.3373 6.77647 12.4784 6.72157 12.651 6.72157C13.0118 6.72157 13.302 7.00392 13.302 7.36471C13.302 7.5451 13.2471 7.68628 13.1059 7.82745L10.9255 10.0078L13.098 12.1804C13.2314 12.298 13.2941 12.4627 13.2941 12.6431C13.2941 13.0039 13.0039 13.2941 12.6353 13.2941C12.4549 13.2941 12.2902 13.2314 12.1725 13.1059L10 10.9255L7.83529 13.1059C7.7098 13.2314 7.5451 13.2941 7.36471 13.2941Z" fill="#93939D"/>
</svg>
