<svg width="40" height="40" viewBox="0 0 40 40" fill="none" xmlns="http://www.w3.org/2000/svg">
<path d="M15.5618 10.3717H12.3441C11.2359 10.3717 10.3376 11.2841 10.3376 12.4096V15.6776C10.3376 16.8031 11.2359 17.7155 12.3441 17.7155H15.5618C16.67 17.7155 17.5683 16.8031 17.5683 15.6776V12.4096C17.5683 11.2841 16.67 10.3717 15.5618 10.3717Z" stroke="black" stroke-width="2" stroke-miterlimit="10"/>
<path d="M15.5618 22.3014H12.3441C11.2359 22.3014 10.3376 23.2138 10.3376 24.3393V27.6073C10.3376 28.7327 11.2359 29.6451 12.3441 29.6451H15.5618C16.67 29.6451 17.5683 28.7327 17.5683 27.6073V24.3393C17.5683 23.2138 16.67 22.3014 15.5618 22.3014Z" stroke="black" stroke-width="2" stroke-miterlimit="10"/>
<path d="M27.6527 10.3717H24.435C23.3268 10.3717 22.4285 11.2841 22.4285 12.4096V15.6776C22.4285 16.8031 23.3268 17.7155 24.435 17.7155H27.6527C28.7609 17.7155 29.6592 16.8031 29.6592 15.6776V12.4096C29.6592 11.2841 28.7609 10.3717 27.6527 10.3717Z" stroke="black" stroke-width="2" stroke-miterlimit="10"/>
<rect x="23.749" y="23.6783" width="4.58984" height="4.58984" rx="0.9375" fill="black"/>
<path d="M25.8342 5.3125C29.0135 5.3125 30.1884 5.5883 31.3566 6.21306C32.4043 6.7734 33.2266 7.59569 33.787 8.64344C34.4117 9.81163 34.6875 10.9865 34.6875 14.1658M14.1658 5.3125C10.9865 5.3125 9.81166 5.5883 8.64347 6.21306C7.59572 6.7734 6.77343 7.59569 6.21309 8.64344C5.58833 9.81163 5.31253 10.9865 5.31253 14.1658M5.31253 25.8342C5.31253 29.0135 5.58833 30.1884 6.21309 31.3566C6.77343 32.4043 7.59572 33.2266 8.64347 33.7869C9.81166 34.4117 10.9865 34.6875 14.1658 34.6875M25.8342 34.6875C29.0135 34.6875 30.1884 34.4117 31.3566 33.7869C32.4043 33.2266 33.2266 32.4043 33.787 31.3566C34.4117 30.1884 34.6875 29.0135 34.6875 25.8342" stroke="black" stroke-width="2" stroke-miterlimit="10" stroke-linecap="round" stroke-linejoin="round"/>
</svg>
