<svg width="24" height="24" viewBox="0 0 24 24" fill="none" xmlns="http://www.w3.org/2000/svg">
<path d="M11.9991 21.5002C6.75244 21.5002 2.49915 17.2469 2.49915 12.0002C2.49915 6.75345 6.75244 2.50015 11.9991 2.50015C17.2459 2.50015 21.4991 6.75345 21.4991 12.0002C21.4991 17.2469 17.2459 21.5002 11.9991 21.5002ZM11.4679 16.8166C11.7425 17.0908 12.1773 17.1084 12.4718 16.8683L12.5284 16.8166L15.9572 13.3878C16.2499 13.095 16.2497 12.6202 15.9572 12.3273C15.6643 12.0345 15.1895 12.0345 14.8966 12.3273L12.7482 14.4757L12.7482 7.715C12.7482 7.30083 12.4123 6.96507 11.9982 6.965C11.584 6.96507 11.2482 7.30083 11.2482 7.715L11.2482 14.4757L9.09973 12.3273C8.80682 12.0346 8.33201 12.0345 8.03918 12.3273C7.74657 12.6201 7.74657 13.095 8.03918 13.3878L11.4679 16.8166Z" fill="black"/>
</svg>
