<svg width="24" height="24" viewBox="0 0 24 24" fill="none" xmlns="http://www.w3.org/2000/svg">
<circle cx="12" cy="12" r="10" stroke="#007AFF" stroke-width="2"/>
<path d="M12.0694 18.9999C11.8133 18.9999 11.6015 18.9113 11.4341 18.734C11.2666 18.5665 11.1829 18.3596 11.1829 18.1134V16.9017L11.5818 17.2563C10.9021 17.2366 10.311 17.1529 9.80864 17.0051C9.30624 16.8574 8.88757 16.6948 8.55264 16.5175C8.33592 16.4091 8.18323 16.2614 8.09457 16.0742C8.01576 15.887 7.98621 15.6949 8.00591 15.4979C8.02561 15.2911 8.09457 15.1137 8.21278 14.966C8.33099 14.8084 8.48368 14.7049 8.67085 14.6557C8.86787 14.6064 9.08952 14.6458 9.33579 14.7739C9.57222 14.9019 9.90222 15.0349 10.3258 15.1728C10.7494 15.3009 11.2666 15.3649 11.8773 15.3649C12.3305 15.3649 12.695 15.3157 12.9708 15.2172C13.2466 15.1088 13.4437 14.9709 13.5619 14.8034C13.6899 14.636 13.754 14.4439 13.754 14.2271C13.754 14.0498 13.7096 13.8922 13.621 13.7543C13.5422 13.6164 13.3993 13.4982 13.1925 13.3997C12.9954 13.2913 12.7295 13.2026 12.3945 13.1337L10.7691 12.7791C9.86282 12.582 9.18803 12.2471 8.74473 11.7743C8.30144 11.2916 8.07979 10.6709 8.07979 9.91242C8.07979 9.32136 8.22263 8.79433 8.50831 8.33133C8.80384 7.86834 9.20773 7.494 9.71998 7.20832C10.2421 6.92264 10.8528 6.75025 11.5523 6.69115L11.1829 6.92757V5.80456C11.1829 5.55828 11.2666 5.35141 11.4341 5.18395C11.6015 5.00663 11.8133 4.91797 12.0694 4.91797C12.3157 4.91797 12.5226 5.00663 12.6901 5.18395C12.8575 5.35141 12.9413 5.55828 12.9413 5.80456V6.92757L12.5718 6.66159C12.9757 6.68129 13.4092 6.7601 13.8722 6.89802C14.345 7.02608 14.7538 7.21325 15.0986 7.45952C15.2858 7.57773 15.4138 7.7255 15.4828 7.90282C15.5616 8.08013 15.5813 8.25745 15.5419 8.43477C15.5124 8.61209 15.4385 8.7697 15.3203 8.90762C15.2021 9.03568 15.0444 9.11941 14.8474 9.15882C14.6602 9.18837 14.4386 9.13911 14.1825 9.01105C13.9165 8.88299 13.6259 8.77463 13.3107 8.68597C12.9954 8.59731 12.6063 8.55298 12.1433 8.55298C11.5621 8.55298 11.109 8.67119 10.7839 8.90762C10.4687 9.14404 10.311 9.44942 10.311 9.82376C10.311 10.0996 10.4046 10.3212 10.5918 10.4887C10.7888 10.6562 11.1287 10.7941 11.6114 10.9024L13.2516 11.2571C14.1874 11.4639 14.877 11.7989 15.3203 12.2619C15.7734 12.7249 16 13.3258 16 14.0646C16 14.6458 15.8571 15.163 15.5715 15.6161C15.2858 16.0594 14.8917 16.419 14.3893 16.6948C13.8869 16.9706 13.3008 17.148 12.6309 17.2268L12.9413 16.8869V18.1134C12.9413 18.3596 12.8575 18.5665 12.6901 18.734C12.5324 18.9113 12.3256 18.9999 12.0694 18.9999Z" fill="#007AFF"/>
</svg>
