<svg width="40" height="40" viewBox="0 0 40 40" fill="none" xmlns="http://www.w3.org/2000/svg">
<path d="M11.6666 17.5L17.489 18.9556C18.0477 19.0953 18.6262 19.1374 19.1992 19.0801L23.6197 18.638C25.251 18.4749 26.6666 19.756 26.6666 21.3955C26.6666 22.926 25.4259 24.1667 23.8954 24.1667H20.8333M11.6666 30C11.6666 30 15.8333 32.5 23.3333 32.5C29.1719 32.5 34.0004 28.4598 35.8531 26.6698C36.3949 26.1464 36.6666 25.4181 36.6666 24.6648C36.6666 22.4457 34.4091 20.9406 32.3606 21.7942L27.8431 23.6765C27.0665 24.0001 26.2335 24.1667 25.3921 24.1667H20" stroke="black" stroke-width="2" stroke-linecap="round"/>
<rect x="3.33337" y="15" width="8.33333" height="16.6667" rx="3.33333" stroke="black" stroke-width="2" stroke-linecap="round"/>
<circle cx="26" cy="9" r="5" stroke="black" stroke-width="2" stroke-linecap="round"/>
</svg>
