<svg width="20" height="20" viewBox="0 0 20 20" fill="none" xmlns="http://www.w3.org/2000/svg">
<path d="M2.77615 9.07326C7.10959 7.19175 9.99855 5.95124 11.443 5.35194C15.5721 3.6406 16.429 3.34338 16.9887 3.33343C17.1117 3.33134 17.3858 3.36166 17.5646 3.50588C17.7132 3.62741 17.755 3.79176 17.776 3.90703C17.7945 4.02231 17.8201 4.28504 17.7992 4.49014C17.5763 6.83272 16.6079 12.5174 16.1155 15.1413C15.9089 16.2515 15.4978 16.6237 15.1007 16.6601C14.2367 16.7392 13.5818 16.0915 12.7458 15.5454C11.4383 14.6906 10.6999 14.1586 9.42957 13.3246C7.96187 12.3607 8.91399 11.8309 9.75006 10.9651C9.9683 10.7385 13.7722 7.29059 13.8442 6.97786C13.8536 6.93874 13.8629 6.79291 13.7746 6.71606C13.6887 6.63897 13.5609 6.66536 13.468 6.68619C13.3356 6.71583 11.2479 8.09267 7.19774 10.8165C6.60555 11.2225 6.06911 11.4204 5.58606 11.41C5.05658 11.3987 4.03482 11.1109 3.27542 10.8651C2.34649 10.5635 1.60564 10.404 1.67066 9.89172C1.70318 9.62505 2.07248 9.35214 2.77615 9.07326Z" fill="black"/>
</svg>
