<svg width="24" height="24" viewBox="0 0 24 24" fill="none" xmlns="http://www.w3.org/2000/svg">
<path d="M20 8V6C20 4.89543 19.1046 4 18 4H6C4.89543 4 4 4.89543 4 6V8M20 8V18C20 19.1046 19.1046 20 18 20H6C4.89543 20 4 19.1046 4 18V8M20 8H4M8.25 12C8.25 12.1381 8.13808 12.25 8 12.25M8.25 12C8.25 11.862 8.13808 11.75 8 11.75M8.25 12H7.75M8 12.25C7.86193 12.25 7.75 12.1381 7.75 12M8 12.25V11.75M7.75 12C7.75 11.862 7.86193 11.75 8 11.75M8.21655 11.875C8.28558 11.9946 8.24462 12.1475 8.12504 12.2165M8.21655 11.875C8.14751 11.7555 7.99462 11.7145 7.87504 11.7835M8.21655 11.875L7.78354 12.125M8.12504 12.2165C8.00547 12.2856 7.85257 12.2446 7.78354 12.125M8.12504 12.2165L7.87504 11.7835M7.78354 12.125C7.7145 12.0055 7.75547 11.8526 7.87504 11.7835M8.12508 11.7836C8.24465 11.8526 8.28562 12.0055 8.21659 12.1251M8.12508 11.7836C8.00551 11.7145 7.85261 11.7555 7.78357 11.8751M8.12508 11.7836L7.87508 12.2166M8.21659 12.1251C8.14755 12.2446 7.99465 12.2856 7.87508 12.2166M8.21659 12.1251L7.78357 11.8751M7.87508 12.2166C7.75551 12.1475 7.71454 11.9946 7.78357 11.8751M8.25 16C8.25 16.1381 8.13808 16.25 8 16.25M8.25 16C8.25 15.862 8.13808 15.75 8 15.75M8.25 16H7.75M8 16.25C7.86193 16.25 7.75 16.1381 7.75 16M8 16.25V15.75M7.75 16C7.75 15.862 7.86193 15.75 8 15.75M8.21655 15.875C8.28558 15.9946 8.24462 16.1475 8.12504 16.2165M8.21655 15.875C8.14751 15.7555 7.99462 15.7145 7.87504 15.7835M8.21655 15.875L7.78354 16.125M8.12504 16.2165C8.00547 16.2856 7.85257 16.2446 7.78354 16.125M8.12504 16.2165L7.87504 15.7835M7.78354 16.125C7.7145 16.0055 7.75547 15.8526 7.87504 15.7835M8.12508 15.7836C8.24465 15.8526 8.28562 16.0055 8.21659 16.1251M8.12508 15.7836C8.00551 15.7145 7.85261 15.7555 7.78357 15.8751M8.12508 15.7836L7.87508 16.2166M8.21659 16.1251C8.14755 16.2446 7.99465 16.2856 7.87508 16.2166M8.21659 16.1251L7.78357 15.8751M7.87508 16.2166C7.75551 16.1475 7.71454 15.9946 7.78357 15.8751M12.25 16C12.25 16.1381 12.1381 16.25 12 16.25M12.25 16C12.25 15.862 12.1381 15.75 12 15.75M12.25 16H11.75M12 16.25C11.8619 16.25 11.75 16.1381 11.75 16M12 16.25V15.75M11.75 16C11.75 15.862 11.8619 15.75 12 15.75M12.2165 15.875C12.2856 15.9946 12.2446 16.1475 12.125 16.2165M12.2165 15.875C12.1475 15.7555 11.9946 15.7145 11.875 15.7835M12.2165 15.875L11.7835 16.125M12.125 16.2165C12.0055 16.2856 11.8526 16.2446 11.7835 16.125M12.125 16.2165L11.875 15.7835M11.7835 16.125C11.7145 16.0055 11.7555 15.8526 11.875 15.7835M12.1251 15.7836C12.2447 15.8526 12.2856 16.0055 12.2166 16.1251M12.1251 15.7836C12.0055 15.7145 11.8526 15.7555 11.7836 15.8751M12.1251 15.7836L11.8751 16.2166M12.2166 16.1251C12.1476 16.2446 11.9947 16.2856 11.8751 16.2166M12.2166 16.1251L11.7836 15.8751M11.8751 16.2166C11.7555 16.1475 11.7145 15.9946 11.7836 15.8751M12.25 12C12.25 12.1381 12.1381 12.25 12 12.25M12.25 12C12.25 11.862 12.1381 11.75 12 11.75M12.25 12H11.75M12 12.25C11.8619 12.25 11.75 12.1381 11.75 12M12 12.25V11.75M11.75 12C11.75 11.862 11.8619 11.75 12 11.75M12.2165 11.875C12.2856 11.9946 12.2446 12.1475 12.125 12.2165M12.2165 11.875C12.1475 11.7555 11.9946 11.7145 11.875 11.7835M12.2165 11.875L11.7835 12.125M12.125 12.2165C12.0055 12.2856 11.8526 12.2446 11.7835 12.125M12.125 12.2165L11.875 11.7835M11.7835 12.125C11.7145 12.0055 11.7555 11.8526 11.875 11.7835M12.1251 11.7836C12.2447 11.8526 12.2856 12.0055 12.2166 12.1251M12.1251 11.7836C12.0055 11.7145 11.8526 11.7555 11.7836 11.8751M12.1251 11.7836L11.8751 12.2166M12.2166 12.1251C12.1476 12.2446 11.9947 12.2856 11.8751 12.2166M12.2166 12.1251L11.7836 11.8751M11.8751 12.2166C11.7555 12.1475 11.7145 11.9946 11.7836 11.8751M16.25 12C16.25 12.1381 16.1381 12.25 16 12.25M16.25 12C16.25 11.862 16.1381 11.75 16 11.75M16.25 12H15.75M16 12.25C15.8619 12.25 15.75 12.1381 15.75 12M16 12.25V11.75M15.75 12C15.75 11.862 15.8619 11.75 16 11.75M16.2165 11.875C16.2856 11.9946 16.2446 12.1475 16.125 12.2165M16.2165 11.875C16.1475 11.7555 15.9946 11.7145 15.875 11.7835M16.2165 11.875L15.7835 12.125M16.125 12.2165C16.0055 12.2856 15.8526 12.2446 15.7835 12.125M16.125 12.2165L15.875 11.7835M15.7835 12.125C15.7145 12.0055 15.7555 11.8526 15.875 11.7835M16.1251 11.7836C16.2447 11.8526 16.2856 12.0055 16.2166 12.1251M16.1251 11.7836C16.0055 11.7145 15.8526 11.7555 15.7836 11.8751M16.1251 11.7836L15.8751 12.2166M16.2166 12.1251C16.1476 12.2446 15.9947 12.2856 15.8751 12.2166M16.2166 12.1251L15.7836 11.8751M15.8751 12.2166C15.7555 12.1475 15.7145 11.9946 15.7836 11.8751" stroke="#93939D" stroke-width="2" stroke-linecap="round" stroke-linejoin="round"/>
</svg>
