<svg width="16" height="16" viewBox="0 0 16 16" fill="none" xmlns="http://www.w3.org/2000/svg">
<path d="M7.68591 1.53017C7.81198 1.26773 8.18806 1.26773 8.31413 1.53017L9.96388 4.96433C10.0146 5.06995 10.1157 5.1429 10.2325 5.15819L14.0304 5.65548C14.3206 5.69348 14.4368 6.04876 14.2245 6.24896L11.4462 8.86866C11.3608 8.94923 11.3222 9.06727 11.3436 9.18234L12.0411 12.9238C12.0944 13.2098 11.7902 13.4293 11.5329 13.2906L8.16604 11.4755C8.0625 11.4197 7.93755 11.4197 7.834 11.4755L4.46718 13.2906C4.20988 13.4293 3.90563 13.2098 3.95893 12.9238L4.65641 9.18234C4.67786 9.06727 4.63925 8.94923 4.55381 8.86866L1.77551 6.24896C1.5632 6.04876 1.67941 5.69348 1.96965 5.65548L5.76754 5.15819C5.88434 5.1429 5.98543 5.06995 6.03616 4.96433L7.68591 1.53017Z" stroke="#8E8E93" stroke-width="1.5" stroke-linecap="round" stroke-linejoin="round"/>
</svg>
