<svg width="24" height="24" viewBox="0 0 24 24" fill="none" xmlns="http://www.w3.org/2000/svg">
<path d="M4 5C4 4.44772 3.55228 4 3 4C2.44772 4 2 4.44772 2 5H3H4ZM21 20C21.5523 20 22 19.5523 22 19C22 18.4477 21.5523 18 21 18V19V20ZM6.29289 14.2929C5.90237 14.6834 5.90237 15.3166 6.29289 15.7071C6.68342 16.0976 7.31658 16.0976 7.70711 15.7071L7 15L6.29289 14.2929ZM14 12L14.7071 12.7071V12.7071L14 12ZM19 7H20C20 6.44772 19.5523 6 19 6V7ZM15 6C14.4477 6 14 6.44772 14 7C14 7.55228 14.4477 8 15 8V7V6ZM18 11C18 11.5523 18.4477 12 19 12C19.5523 12 20 11.5523 20 11H19H18ZM3 5H2V17H3H4V5H3ZM5 19V20H21V19V18H5V19ZM3 17H2C2 18.6569 3.34315 20 5 20V19V18C4.44772 18 4 17.5523 4 17H3ZM7 15L7.70711 15.7071L10.7071 12.7071L10 12L9.29289 11.2929L6.29289 14.2929L7 15ZM19 7V6H15V7V8H19V7ZM19 7H18V11H19H20V7H19ZM12 12L11.2929 12.7071C12.2357 13.6499 13.7643 13.6499 14.7071 12.7071L14 12L13.2929 11.2929C13.1311 11.4547 12.8689 11.4547 12.7071 11.2929L12 12ZM10 12L10.7071 12.7071C10.8689 12.5453 11.1311 12.5453 11.2929 12.7071L12 12L12.7071 11.2929C11.7643 10.3501 10.2357 10.3501 9.29289 11.2929L10 12ZM14 12L14.7071 12.7071L19.174 8.24024L18.4669 7.53313L17.7598 6.82603L13.2929 11.2929L14 12Z" fill="#93939D"/>
</svg>
