<svg width="24" height="24" viewBox="0 0 24 24" fill="none" xmlns="http://www.w3.org/2000/svg">
<path fill-rule="evenodd" clip-rule="evenodd" d="M1.16663 12C1.16663 6.01691 6.01688 1.16666 12 1.16666C17.983 1.16666 22.8333 6.01691 22.8333 12C22.8333 17.9831 17.983 22.8333 12 22.8333C6.01688 22.8333 1.16663 17.9831 1.16663 12ZM14.734 7.93455C15.5427 7.71399 16.2847 8.45605 16.0642 9.26475L14.8515 13.7113C14.7001 14.2665 14.2664 14.7001 13.7113 14.8515L9.26471 16.0642C8.45601 16.2848 7.71395 15.5427 7.93451 14.734L9.14722 10.2874C9.29861 9.73231 9.73228 9.29865 10.2874 9.14725L14.734 7.93455Z" fill="black"/>
</svg>
