<svg width="24" height="24" viewBox="0 0 24 24" fill="none" xmlns="http://www.w3.org/2000/svg">
<path fill-rule="evenodd" clip-rule="evenodd" d="M1.16663 6.04167C1.16663 4.54726 2.37626 3.33334 3.87339 3.33334H17.4166C19.2116 3.33334 20.6666 4.78841 20.6666 6.58334V6.76827C21.9289 7.21442 22.8333 8.41826 22.8333 9.83334V17.4167C22.8333 19.2116 21.3782 20.6667 19.5833 20.6667H4.41663C2.6217 20.6667 1.16663 19.2116 1.16663 17.4167V6.04167ZM3.33329 6.04167C3.33329 6.34082 3.57581 6.58334 3.87496 6.58334H18.5C18.5 5.98503 18.0149 5.5 17.4166 5.5H3.87339C3.5756 5.5 3.33329 5.74115 3.33329 6.04167ZM15.25 13.625C15.25 12.7275 15.9775 12 16.875 12C17.7724 12 18.5 12.7275 18.5 13.625C18.5 14.5225 17.7724 15.25 16.875 15.25C15.9775 15.25 15.25 14.5225 15.25 13.625Z" fill="black"/>
</svg>
