<svg width="24" height="24" viewBox="0 0 24 24" fill="none" xmlns="http://www.w3.org/2000/svg">
<path d="M21.75 12C21.75 17.3848 17.3848 21.75 12 21.75C6.61522 21.75 2.25 17.3848 2.25 12C2.25 6.61522 6.61522 2.25 12 2.25C17.3848 2.25 21.75 6.61522 21.75 12Z" stroke="#93939D" stroke-width="2" stroke-linejoin="round"/>
<path d="M14.8772 8.45775L10.4306 9.67045C10.0605 9.77138 9.77138 10.0605 9.67045 10.4306L8.45775 14.8772C8.34747 15.2815 8.71849 15.6525 9.12285 15.5423L13.5694 14.3295C13.9395 14.2286 14.2286 13.9395 14.3295 13.5694L15.5423 9.12285C15.6525 8.7185 15.2815 8.34747 14.8772 8.45775Z" stroke="#93939D" stroke-width="2" stroke-linejoin="round"/>
</svg>
