<svg width="28" height="28" viewBox="0 0 28 28" fill="none" xmlns="http://www.w3.org/2000/svg">
<g clip-path="url(#clip0_40001176_28376)">
<circle cx="14" cy="14" r="14" fill="#747480" fill-opacity="0.12"/>
<path fill-rule="evenodd" clip-rule="evenodd" d="M9.56047 9.55455C9.951 9.16415 10.5841 9.16407 10.9745 9.55455L14.0038 12.5838L17.0322 9.55943C17.4228 9.16904 18.0558 9.1688 18.4462 9.55943C18.8364 9.95008 18.8358 10.5831 18.4452 10.9735L15.4179 13.9979L18.4462 17.0262C18.8365 17.4167 18.8365 18.0498 18.4462 18.4403C18.0558 18.8307 17.4227 18.8306 17.0322 18.4403L14.0038 15.412L10.9745 18.4403C10.584 18.8306 9.9509 18.8306 9.56047 18.4403C9.17012 18.0497 9.17003 17.4167 9.56047 17.0262L12.5898 13.9979L9.56047 10.9686C9.16995 10.5781 9.16995 9.94507 9.56047 9.55455Z" fill="#8E8E93"/>
</g>
<defs>
<clipPath id="clip0_40001176_28376">
<rect width="28" height="28" fill="white"/>
</clipPath>
</defs>
</svg>
