<svg width="24" height="24" viewBox="0 0 24 24" fill="none" xmlns="http://www.w3.org/2000/svg">
<path d="M11.5288 2.29524C11.7179 1.90159 12.2821 1.90159 12.4712 2.29524L14.9458 7.44648C15.0219 7.60491 15.1735 7.71434 15.3487 7.73728L21.0456 8.4832C21.4809 8.5402 21.6552 9.07312 21.3368 9.37342L17.1693 13.303C17.0412 13.4238 16.9832 13.6009 17.0154 13.7735L18.0616 19.3857C18.1416 19.8146 17.6852 20.144 17.2993 19.9359L12.249 17.2133C12.0937 17.1296 11.9063 17.1296 11.751 17.2133L6.70073 19.9359C6.3148 20.144 5.85841 19.8146 5.93837 19.3857L6.98459 13.7735C7.01677 13.6009 6.95885 13.4238 6.83068 13.303L2.66324 9.37342C2.34476 9.07312 2.51909 8.5402 2.95444 8.4832L8.65127 7.73728C8.82648 7.71434 8.97811 7.60491 9.05422 7.44648L11.5288 2.29524Z" stroke="black" stroke-width="2" stroke-linecap="round" stroke-linejoin="round"/>
</svg>
