<svg width="24" height="24" viewBox="0 0 24 24" fill="none" xmlns="http://www.w3.org/2000/svg">
<path d="M2.25 6.04167V17.4167C2.25 18.6133 3.22005 19.5833 4.41667 19.5833H19.75C20.8546 19.5833 21.75 18.6879 21.75 17.5833V9.66667C21.75 8.5621 20.8546 7.66667 19.75 7.66667H3.875C2.97754 7.66667 2.25 6.93913 2.25 6.04167ZM2.25 6.04167C2.25 5.14421 2.97597 4.41667 3.87343 4.41667H17.5833C18.6879 4.41667 19.5833 5.3121 19.5833 6.41667V7.12501M16.7667 13.625H16.9833M17.4167 13.625C17.4167 13.9242 17.1742 14.1667 16.875 14.1667C16.5758 14.1667 16.3333 13.9242 16.3333 13.625C16.3333 13.3259 16.5758 13.0833 16.875 13.0833C17.1742 13.0833 17.4167 13.3259 17.4167 13.625Z" stroke="#93939D" stroke-width="2" stroke-linecap="round" stroke-linejoin="round"/>
</svg>
