<svg width="20" height="20" viewBox="0 0 20 20" fill="none" xmlns="http://www.w3.org/2000/svg">
<path d="M7.50004 4.99999H7.33337C5.93324 4.99999 5.23318 4.99999 4.6984 5.27248C4.22799 5.51216 3.84554 5.89461 3.60586 6.36502C3.33337 6.8998 3.33337 7.59986 3.33337 9V12.6667C3.33337 14.0668 3.33337 14.7669 3.60586 15.3016C3.84554 15.772 4.22799 16.1545 4.6984 16.3942C5.23318 16.6667 5.93324 16.6667 7.33337 16.6667H11C12.4002 16.6667 13.1002 16.6667 13.635 16.3942C14.1054 16.1545 14.4879 15.772 14.7276 15.3016C15 14.7669 15 14.0668 15 12.6667V12.5M11.6667 3.33333H16.6667M16.6667 3.33333V8.33333M16.6667 3.33333L9.16671 10.8333" stroke="#007AFF" stroke-width="1.8" stroke-linecap="round" stroke-linejoin="round"/>
</svg>
