<svg width="16" height="16" viewBox="0 0 16 16" fill="none" xmlns="http://www.w3.org/2000/svg">
<path d="M8.4209 4.22754C8.82436 5.08043 9.76912 5.53567 10.6875 5.31934L11.6445 5.09375L11.2119 5.97656C10.7966 6.82378 11.0297 7.84655 11.7715 8.42969L12.5449 9.03711L11.584 9.24902C10.6629 9.45258 10.0093 10.2725 10.0156 11.2158L10.0225 12.2002L9.25781 11.5811C8.52428 10.9878 7.47572 10.9878 6.74219 11.5811L5.97754 12.2002L5.98438 11.2158C5.99072 10.2725 5.33713 9.45258 4.41602 9.24902L3.45508 9.03711L4.22852 8.42969C4.97025 7.84655 5.20336 6.82378 4.78809 5.97656L4.35547 5.09375L5.3125 5.31934C6.23088 5.53567 7.17564 5.08043 7.5791 4.22754L8 3.33887L8.4209 4.22754Z" stroke="black" stroke-width="2"/>
</svg>
