<svg width="24" height="24" viewBox="0 0 24 24" fill="none" xmlns="http://www.w3.org/2000/svg">
<path d="M17.7512 19.25H19.2702C21.0145 19.25 22.4648 17.7189 21.7765 16.1161C20.9085 14.0947 19.3034 12.75 17.0012 12.75C16.5551 12.75 16.1352 12.8005 15.7418 12.8966M11.2511 7C11.2511 8.79493 9.796 10.25 8.00107 10.25C6.20615 10.25 4.75107 8.79493 4.75107 7C4.75107 5.20507 6.20615 3.75 8.00107 3.75C9.796 3.75 11.2511 5.20507 11.2511 7ZM19.7511 7.5C19.7511 9.01878 18.5199 10.25 17.0011 10.25C15.4823 10.25 14.2511 9.01878 14.2511 7.5C14.2511 5.98122 15.4823 4.75 17.0011 4.75C18.5199 4.75 19.7511 5.98122 19.7511 7.5ZM2.39351 17.0967C3.3281 14.509 5.21546 12.75 8.00107 12.75C10.7867 12.75 12.674 14.509 13.6086 17.0967C14.2007 18.736 12.7667 20.25 11.0237 20.25H4.97844C3.23541 20.25 1.80142 18.736 2.39351 17.0967Z" stroke="#93939D" stroke-width="2" stroke-linecap="round" stroke-linejoin="round"/>
</svg>
