<svg width="24" height="24" viewBox="0 0 24 24" fill="none" xmlns="http://www.w3.org/2000/svg">
<path d="M12 24C18.6274 24 24 18.6274 24 12C24 5.37258 18.6274 0 12 0C5.37258 0 0 5.37258 0 12C0 18.6274 5.37258 24 12 24Z" fill="#0098EA"/>
<path d="M16.0972 6.69754H7.90222C6.39543 6.69754 5.44041 8.3229 6.19844 9.63683L11.2561 18.4032C11.5861 18.9756 12.4133 18.9756 12.7433 18.4032L17.802 9.63683C18.559 8.325 17.604 6.69754 16.0982 6.69754H16.0972ZM11.2519 15.7743L10.1505 13.6426L7.49277 8.88915C7.31744 8.58488 7.53405 8.19503 7.90117 8.19503H11.251V15.7754L11.2519 15.7743ZM16.5046 8.8881L13.8479 13.6436L12.7464 15.7743V8.19398H16.0962C16.4633 8.19398 16.6799 8.58383 16.5046 8.8881Z" fill="white"/>
</svg>
