<svg width="20" height="20" viewBox="0 0 20 20" fill="none" xmlns="http://www.w3.org/2000/svg">
<rect x="1" y="1" width="18" height="18" rx="9" fill="#93939D"/>
<rect x="1" y="1" width="18" height="18" rx="9" stroke="white" stroke-width="2"/>
<path d="M8.70592 5.17036C7.75071 5.42631 6.89284 5.95977 6.24081 6.70326C5.58878 7.44676 5.17187 8.36692 5.04279 9.34736C4.91371 10.3278 5.07827 11.3245 5.51565 12.2114C5.95303 13.0984 6.64359 13.8357 7.50001 14.3301C8.35643 14.8246 9.34024 15.054 10.327 14.9893C11.3138 14.9246 12.2593 14.5688 13.0438 13.9668C13.8284 13.3648 14.4168 12.5436 14.7347 11.6072C15.0525 10.6708 15.0856 9.66111 14.8296 8.7059" stroke="white" stroke-width="1.5" stroke-linecap="round" stroke-linejoin="round"/>
</svg>
