<svg width="24" height="24" viewBox="0 0 24 24" fill="none" xmlns="http://www.w3.org/2000/svg">
<path d="M12 24C18.6274 24 24 18.6274 24 12C24 5.37258 18.6274 0 12 0C5.37258 0 0 5.37258 0 12C0 18.6274 5.37258 24 12 24Z" fill="#0098EA"/>
<path d="M16.0942 6.69754H7.89929C6.3925 6.69754 5.43748 8.3229 6.19551 9.63683L11.2531 18.4032C11.5832 18.9756 12.4103 18.9756 12.7404 18.4032L17.7991 9.63683C18.556 8.325 17.6011 6.69754 16.0953 6.69754H16.0942ZM11.249 15.7743L10.1476 13.6426L7.48984 8.88915C7.31451 8.58488 7.53112 8.19503 7.89824 8.19503H11.248V15.7754L11.249 15.7743ZM16.5016 8.8881L13.8449 13.6436L12.7435 15.7743V8.19398H16.0933C16.4604 8.19398 16.677 8.58383 16.5016 8.8881Z" fill="white"/>
</svg>
