<svg width="24" height="24" viewBox="0 0 24 24" fill="none" xmlns="http://www.w3.org/2000/svg">
<path d="M12 22C17.5228 22 22 17.5228 22 12C22 6.47715 17.5228 2 12 2C6.47715 2 2 6.47715 2 12C2 17.5228 6.47715 22 12 22Z" stroke="#141416" stroke-width="2" stroke-linecap="round" stroke-linejoin="round"/>
<path d="M12 8V18L7.11948 9.64565C7.03524 9.47722 6.99444 9.29093 7.00061 9.10324C7.00678 8.91554 7.05973 8.73225 7.15486 8.56955C7.24999 8.40684 7.38435 8.26975 7.546 8.17041C7.70766 8.07107 7.89157 8.01256 8.08163 8H12Z" stroke="#141416" stroke-width="2" stroke-linecap="round" stroke-linejoin="round"/>
<path d="M12 18L16.8804 9.64565C16.9646 9.47722 17.0056 9.29093 16.9994 9.10324C16.9932 8.91554 16.9401 8.73225 16.845 8.56955C16.7499 8.40684 16.6157 8.26975 16.454 8.17041C16.2924 8.07107 16.1083 8.01256 15.9183 8H12V18Z" stroke="#141416" stroke-width="2" stroke-linecap="round" stroke-linejoin="round"/>
</svg>
