<svg width="24" height="24" viewBox="0 0 24 24" fill="none" xmlns="http://www.w3.org/2000/svg">
<path d="M11.9991 2.50014C17.2459 2.50014 21.4991 6.75343 21.4991 12.0001C21.4991 17.2468 17.2459 21.5001 11.9991 21.5001C6.75244 21.5001 2.49915 17.2468 2.49915 12.0001C2.49915 6.75343 6.75244 2.50014 11.9991 2.50014ZM12.5304 7.18373C12.2558 6.90946 11.821 6.89192 11.5265 7.13198L11.4698 7.18373L8.04114 10.6124C7.74841 10.9052 7.74855 11.3801 8.04114 11.673C8.33401 11.9658 8.80881 11.9658 9.10168 11.673L11.2501 9.52455V16.2853C11.2501 16.6995 11.586 17.0352 12.0001 17.0353C12.4143 17.0352 12.7501 16.6995 12.7501 16.2853V9.52455L14.8986 11.673C15.1915 11.9657 15.6663 11.9658 15.9591 11.673C16.2517 11.3802 16.2517 10.9053 15.9591 10.6124L12.5304 7.18373Z" fill="black"/>
</svg>
