<svg width="40" height="40" viewBox="0 0 40 40" fill="none" xmlns="http://www.w3.org/2000/svg">
<path d="M29.5853 32.0833H32.117C35.0242 32.0833 37.4413 29.5315 36.2942 26.8602C34.8475 23.4912 32.1723 21.25 28.3353 21.25C27.5918 21.25 26.892 21.3342 26.2363 21.4943M18.7518 11.6667C18.7518 14.6582 16.3267 17.0833 13.3351 17.0833C10.3436 17.0833 7.91846 14.6582 7.91846 11.6667C7.91846 8.67512 10.3436 6.25 13.3351 6.25C16.3267 6.25 18.7518 8.67512 18.7518 11.6667ZM32.9185 12.5C32.9185 15.0313 30.8665 17.0833 28.3352 17.0833C25.8038 17.0833 23.7518 15.0313 23.7518 12.5C23.7518 9.9687 25.8038 7.91667 28.3352 7.91667C30.8665 7.91667 32.9185 9.9687 32.9185 12.5ZM3.98919 28.4945C5.54684 24.1817 8.69244 21.25 13.3351 21.25C17.9778 21.25 21.1233 24.1817 22.681 28.4945C23.6678 31.2267 21.2778 33.75 18.3728 33.75H8.29741C5.39236 33.75 3.00238 31.2267 3.98919 28.4945Z" stroke="black" stroke-width="2" stroke-linecap="round" stroke-linejoin="round"/>
</svg>
