<svg width="24" height="24" viewBox="0 0 24 24" fill="none" xmlns="http://www.w3.org/2000/svg">
<path d="M10.8308 1.15308C11.5954 0.948113 12.4041 0.94817 13.1687 1.15308C14.0863 1.39911 14.8786 2.03989 16.0193 2.92749L19.6189 5.72925C20.3072 6.26488 20.8056 6.64175 21.1687 7.12671C21.4742 7.53496 21.7031 7.99437 21.8425 8.48315C22.009 9.06693 21.9998 9.68511 21.9998 10.532V15.8279C21.9998 16.7156 22.0004 17.4446 21.95 18.0359C21.8984 18.6402 21.7878 19.1909 21.5144 19.7048C21.089 20.5042 20.4148 21.1468 19.5955 21.5466C19.074 21.801 18.5155 21.9043 17.8943 21.9529C17.2835 22.0006 16.5284 21.9998 15.5994 21.9998H8.40015C7.47109 21.9998 6.71599 22.0007 6.10522 21.9529C5.48411 21.9043 4.92546 21.801 4.40405 21.5466C3.58484 21.1468 2.91045 20.5041 2.48511 19.7048C2.21181 19.191 2.10111 18.6401 2.04956 18.0359C2.02437 17.7404 2.01171 17.4104 2.00562 17.0437L1.99976 15.8279V10.532C1.99975 9.68512 1.99055 9.06693 2.15698 8.48315C2.29641 7.99432 2.52524 7.535 2.83081 7.12671C3.19389 6.64163 3.69216 6.26496 4.38062 5.72925L7.98022 2.92749C9.12096 2.03984 9.91321 1.39917 10.8308 1.15308ZM6.99976 15.9998C6.44768 15.9999 5.99989 16.4477 5.99976 16.9998C5.99976 17.5519 6.4476 17.9996 6.99976 17.9998H16.9998C17.552 17.9998 17.9998 17.552 17.9998 16.9998C17.9996 16.4476 17.552 15.9998 16.9998 15.9998H6.99976Z" fill="black"/>
</svg>
