<svg width="40" height="40" viewBox="0 0 40 40" fill="none" xmlns="http://www.w3.org/2000/svg">
<circle cx="25.5" cy="20.5" r="12.5" stroke="black" stroke-width="2" stroke-linecap="round" stroke-linejoin="round"/>
<path d="M12 11H8" stroke="black" stroke-width="2" stroke-linecap="round"/>
<path d="M8 21H5" stroke="black" stroke-width="2" stroke-linecap="round"/>
<path d="M9 16H1" stroke="black" stroke-width="2" stroke-linecap="round"/>
<path d="M25.3347 28C25.0619 28 24.8363 27.9056 24.6579 27.7167C24.4795 27.5383 24.3903 27.3179 24.3903 27.0556V25.765L24.8153 26.1427C24.0913 26.1217 23.4617 26.0325 22.9265 25.8751C22.3914 25.7177 21.9454 25.5446 21.5887 25.3557C21.3578 25.2403 21.1952 25.0829 21.1007 24.8835C21.0168 24.6842 20.9853 24.4795 21.0063 24.2697C21.0273 24.0493 21.1007 23.8604 21.2267 23.703C21.3526 23.5352 21.5152 23.425 21.7146 23.3725C21.9244 23.32 22.1605 23.362 22.4229 23.4984C22.6747 23.6348 23.0262 23.7765 23.4774 23.9234C23.9286 24.0598 24.4795 24.128 25.1301 24.128C25.6128 24.128 26.001 24.0756 26.2949 23.9706C26.5887 23.8552 26.7985 23.7083 26.9244 23.5299C27.0609 23.3515 27.1291 23.1469 27.1291 22.9161C27.1291 22.7272 27.0818 22.5593 26.9874 22.4124C26.9035 22.2655 26.7513 22.1396 26.531 22.0346C26.3211 21.9192 26.0378 21.8248 25.681 21.7513L23.9496 21.3736C22.9843 21.1637 22.2655 20.8069 21.7933 20.3033C21.3211 19.7891 21.085 19.128 21.085 18.32C21.085 17.6905 21.2371 17.1291 21.5414 16.6359C21.8562 16.1427 22.2865 15.744 22.8321 15.4397C23.3882 15.1354 24.0388 14.9517 24.7838 14.8888L24.3903 15.1406V13.9444C24.3903 13.6821 24.4795 13.4617 24.6579 13.2833C24.8363 13.0944 25.0619 13 25.3347 13C25.5971 13 25.8174 13.0944 25.9958 13.2833C26.1742 13.4617 26.2634 13.6821 26.2634 13.9444V15.1406L25.8699 14.8573C26.3001 14.8783 26.7618 14.9622 27.255 15.1091C27.7587 15.2455 28.1941 15.4449 28.5614 15.7072C28.7608 15.8332 28.8972 15.9906 28.9706 16.1794C29.0546 16.3683 29.0756 16.5572 29.0336 16.7461C29.0021 16.9349 28.9234 17.1028 28.7975 17.2497C28.6716 17.3861 28.5037 17.4753 28.2938 17.5173C28.0944 17.5488 27.8583 17.4963 27.5855 17.3599C27.3022 17.2235 26.9927 17.1081 26.6569 17.0136C26.3211 16.9192 25.9066 16.872 25.4134 16.872C24.7943 16.872 24.3116 16.9979 23.9654 17.2497C23.6296 17.5016 23.4617 17.8269 23.4617 18.2256C23.4617 18.5194 23.5614 18.7555 23.7608 18.9339C23.9706 19.1123 24.3326 19.2592 24.8468 19.3746L26.5939 19.7524C27.5908 19.9727 28.3253 20.3295 28.7975 20.8227C29.2802 21.3158 29.5215 21.9559 29.5215 22.7429C29.5215 23.362 29.3694 23.9129 29.0651 24.3956C28.7608 24.8678 28.341 25.2508 27.8059 25.5446C27.2707 25.8384 26.6464 26.0273 25.9328 26.1112L26.2634 25.7492V27.0556C26.2634 27.3179 26.1742 27.5383 25.9958 27.7167C25.8279 27.9056 25.6076 28 25.3347 28Z" fill="black"/>
</svg>
