<svg width="20" height="20" viewBox="0 0 20 20" fill="none" xmlns="http://www.w3.org/2000/svg">
<path d="M6.66671 6.66666V5.99999C6.66671 5.06657 6.66671 4.59986 6.84836 4.24334C7.00815 3.92974 7.26312 3.67477 7.57672 3.51498C7.93324 3.33333 8.39995 3.33333 9.33337 3.33333H14C14.9335 3.33333 15.4002 3.33333 15.7567 3.51498C16.0703 3.67477 16.3253 3.92974 16.4851 4.24334C16.6667 4.59986 16.6667 5.06657 16.6667 6V10.6667C16.6667 11.6001 16.6667 12.0668 16.4851 12.4233C16.3253 12.7369 16.0703 12.9919 15.7567 13.1517C15.4002 13.3333 14.9335 13.3333 14 13.3333H13.3334M13.3334 9.33333V14C13.3334 14.9334 13.3334 15.4001 13.1517 15.7566C12.9919 16.0702 12.737 16.3252 12.4234 16.485C12.0668 16.6667 11.6001 16.6667 10.6667 16.6667H6.00004C5.06662 16.6667 4.59991 16.6667 4.24339 16.485C3.92979 16.3252 3.67482 16.0702 3.51503 15.7566C3.33337 15.4001 3.33337 14.9334 3.33337 14V9.33333C3.33337 8.39991 3.33337 7.9332 3.51503 7.57668C3.67482 7.26307 3.92979 7.00811 4.24339 6.84832C4.59991 6.66666 5.06662 6.66666 6.00004 6.66666H10.6667C11.6001 6.66666 12.0668 6.66666 12.4234 6.84832C12.737 7.00811 12.9919 7.26307 13.1517 7.57668C13.3334 7.9332 13.3334 8.39991 13.3334 9.33333Z" stroke="black" stroke-width="1.8" stroke-linecap="round" stroke-linejoin="round"/>
</svg>
