<svg width="40" height="40" viewBox="0 0 40 40" fill="none" xmlns="http://www.w3.org/2000/svg">
<path d="M20 35C28.2843 35 35 28.2843 35 20C35 11.7157 28.2843 5 20 5C11.7157 5 5 11.7157 5 20C5 28.2843 11.7157 35 20 35Z" stroke="black" stroke-width="2" stroke-linecap="round" stroke-linejoin="round"/>
<path d="M19.8078 14.2308V28.8463L12.6746 16.636C12.5515 16.3898 12.4919 16.1175 12.5009 15.8432C12.5099 15.5689 12.5873 15.301 12.7263 15.0632C12.8654 14.8254 13.0617 14.625 13.298 14.4798C13.5343 14.3346 13.8031 14.2491 14.0809 14.2308H19.8078Z" stroke="black" stroke-width="2" stroke-linecap="round" stroke-linejoin="round"/>
<path d="M19.8087 28.8463L26.9417 16.636C27.0648 16.3898 27.1246 16.1175 27.1156 15.8432C27.1066 15.5689 27.029 15.301 26.89 15.0632C26.7509 14.8254 26.5548 14.625 26.3185 14.4798C26.0822 14.3346 25.8132 14.2491 25.5355 14.2308H19.8087V28.8463Z" stroke="black" stroke-width="2" stroke-linecap="round" stroke-linejoin="round"/>
</svg>
